<?xml version="1.0" encoding="UTF-8"?>
<svg xmlns="http://www.w3.org/2000/svg" width="512" height="512" viewBox="0 0 512 512" role="img" aria-labelledby="title desc">
  <title id="title">LUCID-LAB compact logo</title>
  <desc id="desc"></desc>
  
  
  <g transform="translate(76.000 88.000) scale(0.600000)" opacity="1"><path d="M 181.426 16.266 C 172.035 24.645, 156.510 38.649, 146.926 47.387 C 137.342 56.124, 120.718 71.277, 109.984 81.059 C 99.250 90.841, 89.259 99.795, 87.782 100.957 C 82.909 104.790, 72.965 119.109, 68.038 129.387 C 59.070 148.097, 57.601 154.686, 50.957 206 C 45.251 250.067, 36.280 317.235, 30.989 355.500 C 29.848 363.750, 28.054 377.025, 27.002 385 C 22.507 419.072, 11.806 498.575, 10.042 511 C 8.198 523.983, 6.280 537.915, 2.056 568.993 C 0.972 576.964, 0.404 583.787, 0.793 584.156 C 1.426 584.756, 9.795 577.487, 59.586 533.094 C 67.239 526.271, 76.425 518.104, 80 514.946 C 83.575 511.787, 96.850 499.903, 109.500 488.537 L 132.500 467.872 158 468.429 C 172.025 468.735, 213.200 469.275, 249.500 469.629 C 314.689 470.263, 315.640 470.244, 326.911 468.075 C 349.615 463.704, 369.277 453.820, 386.219 438.261 C 390.268 434.543, 402.091 423.850, 412.492 414.500 C 422.893 405.150, 436.409 393, 442.527 387.500 C 448.645 382, 457.399 374.125, 461.981 370 C 466.563 365.875, 471.594 361.375, 473.163 360 C 489.023 346.094, 504.860 331.259, 504.923 330.250 C 504.984 329.260, 489.207 329, 429.163 329 C 387.453 329, 339.190 328.706, 321.913 328.346 L 290.500 327.691 273.500 342.510 C 258.443 355.635, 231.349 379.617, 230 381.013 C 229.357 381.679, 214.461 394.856, 194.973 412 C 186.532 419.425, 175.129 429.550, 169.632 434.500 C 164.136 439.450, 153.870 448.581, 146.819 454.791 L 134 466.082 134.033 462.791 C 134.050 460.981, 134.706 454.775, 135.489 449 C 136.272 443.225, 137.575 433.550, 138.385 427.500 C 139.194 421.450, 141.222 407.050, 142.891 395.500 C 144.560 383.950, 146.383 371.125, 146.942 367 C 147.501 362.875, 149.109 351.850, 150.514 342.500 C 151.919 333.150, 153.721 320.550, 154.520 314.500 C 156.794 297.265, 159.696 276.766, 162.023 261.500 C 163.196 253.800, 164.778 243, 165.537 237.500 C 166.297 232, 168.091 220.075, 169.524 211 C 172.570 191.709, 174.376 179.607, 176.986 161 C 178.027 153.575, 179.813 141.200, 180.954 133.500 C 182.096 125.800, 183.920 113.425, 185.007 106 C 186.095 98.575, 187.892 86.650, 188.999 79.500 C 190.107 72.350, 191.662 62.225, 192.455 57 C 193.952 47.142, 197.470 23.938, 199.051 13.500 C 200.167 6.134, 200.249 0.995, 199.250 1.016 C 198.838 1.025, 190.817 7.887, 181.426 16.266" fill="#0A0A0A"/></g>
</svg>
